<svg xmlns="http://www.w3.org/2000/svg" width="35" height="35" viewBox="0 0 35 35" fill="none">
  <path d="M17.4603 34.9702C14.007 34.9702 10.6312 33.9462 7.75987 32.0276C4.88854 30.1091 2.65062 27.3822 1.32909 24.1917C0.00756524 21.0013 -0.338206 17.4906 0.335502 14.1036C1.00921 10.7167 2.67214 7.60555 5.114 5.16368C7.55586 2.72182 10.667 1.05889 14.0539 0.385185C17.4409 -0.288525 20.9516 0.0572472 24.142 1.37877C27.3325 2.7003 30.0594 4.93822 31.9779 7.80955C33.8965 10.6809 34.9205 14.0566 34.9205 17.51C34.9205 22.1407 33.081 26.5818 29.8065 29.8562C26.5321 33.1307 22.091 34.9702 17.4603 34.9702ZM17.4603 3.79117C14.747 3.79117 12.0946 4.59577 9.83853 6.1032C7.58248 7.61064 5.82411 9.75322 4.78577 12.26C3.74743 14.7668 3.47575 17.5252 4.0051 20.1864C4.53444 22.8475 5.84102 25.292 7.75963 27.2106C9.67824 29.1292 12.1227 30.4358 14.7839 30.9651C17.4451 31.4945 20.2034 31.2228 22.7102 30.1845C25.217 29.1461 27.3596 27.3877 28.867 25.1317C30.3745 22.8757 31.179 20.2233 31.179 17.51C31.179 13.8715 29.7337 10.3821 27.1609 7.80931C24.5881 5.23654 21.0987 3.79117 17.4603 3.79117Z" fill="#FFE792"/>
  <path d="M18.0839 34.9547C13.5655 34.7926 9.28637 32.8837 6.14722 29.6299C3.00807 26.3761 1.25385 22.0313 1.25385 17.51C1.25385 12.9888 3.00807 8.64396 6.14722 5.39016C9.28637 2.13637 13.5655 0.227478 18.0839 0.0653687C22.6022 0.227478 26.8813 2.13637 30.0205 5.39016C33.1596 8.64396 34.9139 12.9888 34.9139 17.51C34.9139 22.0313 33.1596 26.3761 30.0205 29.6299C26.8813 32.8837 22.6022 34.7926 18.0839 34.9547ZM18.7074 3.79126C18.4985 3.79126 18.2909 3.7975 18.0839 3.80685C17.8768 3.7975 17.6692 3.79126 17.4603 3.79126C13.8218 3.79126 10.3324 5.23663 7.75963 7.8094C5.18686 10.3822 3.74149 13.8716 3.74149 17.51C3.74149 21.1485 5.18686 24.6379 7.75963 27.2107C10.3324 29.7834 13.8218 31.2288 17.4603 31.2288C17.6692 31.2288 17.8768 31.2226 18.0839 31.2132C18.2909 31.2226 18.4985 31.2288 18.7074 31.2288C22.3459 31.2288 25.8353 29.7834 28.4081 27.2107C30.9808 24.6379 32.4262 21.1485 32.4262 17.51C32.4262 13.8716 30.9808 10.3822 28.4081 7.8094C25.8353 5.23663 22.3459 3.79126 18.7074 3.79126Z" fill="#FFDE66"/>
  <path d="M33.9852 18.1335C33.9849 15.0257 33.155 11.9742 31.5813 9.29421C30.0076 6.61422 27.7471 4.40283 25.0332 2.88838C22.3193 1.37393 19.2503 0.611301 16.1432 0.679243C13.0361 0.747185 10.0034 1.64323 7.35828 3.27487C9.2659 1.90587 11.4301 0.935705 13.7213 0.422394C16.0125 -0.0909157 18.3837 -0.136826 20.6931 0.287418C23.0025 0.71166 25.2026 1.59734 27.1617 2.89147C29.1209 4.1856 30.799 5.8616 32.0955 7.81921C33.392 9.77682 34.2803 11.9758 34.7074 14.2847C35.1344 16.5935 35.0914 18.9648 34.5809 21.2567C34.0704 23.5485 33.1028 25.7138 31.7362 27.6231C30.3695 29.5324 28.6318 31.1464 26.6269 32.3687C28.9024 30.7573 30.7582 28.6236 32.0386 26.1467C33.3189 23.6697 33.9865 20.9218 33.9852 18.1335Z" fill="#FFD846"/>
  <path d="M28.0431 28.0928C25.95 30.1857 23.2833 31.611 20.3802 32.1884C17.4772 32.7658 14.468 32.4694 11.7334 31.3367C8.99879 30.2039 6.66148 28.2857 5.01704 25.8246C3.37259 23.3634 2.49487 20.47 2.49487 17.51C2.49487 14.5501 3.37259 11.6566 5.01704 9.19546C6.66148 6.73433 8.99879 4.81611 11.7334 3.68336C14.468 2.5506 17.4772 2.25418 20.3802 2.83158C23.2833 3.40898 25.95 4.83427 28.0431 6.92722C29.4329 8.31694 30.5353 9.96681 31.2875 11.7826C32.0396 13.5984 32.4268 15.5446 32.4268 17.51C32.4268 19.4754 32.0396 21.4216 31.2875 23.2374C30.5353 25.0532 29.4329 26.7031 28.0431 28.0928ZM22.7607 12.2096H12.1598V22.8104H22.7607V12.2096Z" fill="#FFC800"/>
  <path d="M8.12464 6.30358C5.65177 8.77308 4.12163 12.0305 3.79978 15.5104C3.47794 18.9904 4.38471 22.4731 6.36272 25.3543C8.34073 28.2354 11.2651 30.3331 14.6283 31.2831C17.9915 32.2332 21.5811 31.9756 24.7742 30.5553C23.0095 31.5498 21.0612 32.1755 19.0474 32.3945C17.0336 32.6134 14.9963 32.4209 13.0591 31.8288C11.1219 31.2367 9.32516 30.2573 7.77787 28.9499C6.23059 27.6425 4.965 26.0345 4.05787 24.2232C3.15075 22.412 2.62099 20.4354 2.50074 18.4133C2.38049 16.3912 2.67225 14.3658 3.35832 12.4598C4.04439 10.5539 5.11048 8.80717 6.49191 7.32563C7.87334 5.84408 9.54133 4.65859 11.3947 3.84106C10.1971 4.50837 9.09682 5.33695 8.12464 6.30358Z" fill="#F9B400"/>
  <path d="M24.0079 22.8104H22.7607V12.2096H12.1599V10.9624H24.0079V22.8104Z" fill="#F9B400"/>
  <path d="M12.1599 12.2096H22.7607V22.8104H12.1599V12.2096ZM14.0306 20.9397H20.89V14.0803H14.0306V20.9397Z" fill="#FFD846"/>
  <path d="M17.1485 28.7344H19.0192V24.9929H17.1485V28.7344ZM17.1485 8.77979H19.0192V5.03831H17.1485V8.77979ZM6.23584 15.951V17.8217H9.97732V15.951H6.23584ZM26.1904 15.951V17.8217H29.9319V15.951H26.1904Z" fill="#F9B400"/>
  <path d="M16.5249 29.358H18.3956V25.6165H16.5249V29.358ZM16.5249 9.40345H18.3956V5.66196H16.5249V9.40345ZM5.61224 16.5746V18.4454H9.35373V16.5746H5.61224ZM25.5668 16.5746V18.4454H29.3083V16.5746H25.5668Z" fill="#FFD846"/>
</svg>
