<svg xmlns="http://www.w3.org/2000/svg" width="30" height="29" viewBox="0 0 30 29" fill="none">
  <path d="M17.9439 2.25487L19.1392 1.05952C20.5519 -0.353173 23.0106 -0.353173 24.4233 1.05952L25.3877 2.02395C25.7356 2.36895 26.0118 2.77945 26.2003 3.23174C26.3888 3.68403 26.4858 4.16917 26.4858 4.65916C26.4858 5.14916 26.3888 5.63429 26.2003 6.08659C26.0118 6.53888 25.7356 6.94937 25.3877 7.29438L24.1923 8.48973L17.9439 2.24129V2.25487ZM16.504 3.69473L4.12941 16.0694C3.73548 16.4633 3.49098 16.9795 3.45023 17.5364L3.08347 21.5164C3.04272 22.019 3.21931 22.508 3.57248 22.8747C3.89848 23.2007 4.31958 23.3773 4.76783 23.3773H4.91725L8.89724 23.0106C9.45416 22.9562 9.97034 22.7117 10.3643 22.3178L22.7389 9.94317L16.4905 3.69473H16.504ZM29.2047 27.7105C29.2047 27.1536 28.7428 26.6917 28.1859 26.6917H1.01877C0.461841 26.6917 0 27.1536 0 27.7105C0 28.2674 0.461841 28.7292 1.01877 28.7292H28.1859C28.7428 28.7292 29.2047 28.2674 29.2047 27.7105Z" fill="white"/>
</svg>
