<svg xmlns="http://www.w3.org/2000/svg" width="54" height="54" viewBox="0 0 54 54" fill="none">
  <circle cx="27" cy="27" r="27" fill="#009DFF"/>
  <path d="M41.1667 35.754L29.291 24.2385V23.3838C31.8165 22.4596 33.5272 20.0854 33.5272 17.3943C33.5272 13.8684 30.5991 11 27.0001 11C23.401 11 20.473 13.8685 20.473 17.3943C20.473 18.6318 21.5007 19.6386 22.7639 19.6386C24.0272 19.6386 25.0549 18.6318 25.0549 17.3943C25.0549 16.3434 25.9276 15.4886 27.0002 15.4886C28.0728 15.4886 28.9453 16.3435 28.9453 17.3943C28.9453 18.4451 28.0727 19.2999 27.0002 19.2999C25.7369 19.2999 24.7092 20.3067 24.7092 21.5442V24.2384L12.8303 35.7569C11.8192 36.7473 11.9471 37.5545 12.1132 37.9475C12.2794 38.3405 12.7716 38.9999 14.2013 38.9999L39.7988 39C41.2285 39 41.7208 38.3407 41.887 37.9476C42.0531 37.5546 42.1809 36.7474 41.1667 35.754ZM32.821 34.2689H21.1789L27.0001 28.5663L32.821 34.2689Z" fill="white"/>
</svg>
